<svg width="26" height="31" viewBox="0 0 26 31" fill="none" xmlns="http://www.w3.org/2000/svg"><path fill-rule="evenodd" clip-rule="evenodd" d="M19.006.078c-1.55.065-3.427 1.032-4.538 2.331-1 1.154-1.871 2.996-1.636 4.762 1.73.136 3.492-.878 4.57-2.178 1.075-1.302 1.802-3.11 1.604-4.915zm-.439 30.735c2.1-.04 3.43-1.904 4.716-3.78 1.487-2.17 2.097-4.269 2.134-4.378l-.008-.003c-.2-.082-4.089-1.66-4.127-6.22-.038-3.765 2.968-5.638 3.3-5.846l.026-.016c-1.81-2.643-4.63-3.006-5.634-3.047-1.467-.148-2.89.412-4.053.87-.74.29-1.373.54-1.847.54-1.216 0-3.095-1.376-5.087-1.34-2.613.04-5.025 1.519-6.37 3.858-2.72 4.71-.698 11.688 1.95 15.507 1.296 1.868 2.837 3.97 4.865 3.894.905-.036 1.55-.31 2.216-.593.769-.328 1.568-.668 2.834-.668 1.205 0 1.966.33 2.7.647.7.303 1.376.594 2.385.575z" fill="#fff"/></svg>