<svg width="28" height="31" viewBox="0 0 28 31" fill="none" xmlns="http://www.w3.org/2000/svg"><path d="M.672 28.178V2.825c0-.885.512-1.65 1.254-2.013l14.63 14.685L1.92 30.187a2.238 2.238 0 0 1-1.248-2.009z" fill="#00D6FF"/><path d="M21.198 20.156L5.2 29.426l12.617-12.663 3.381 3.393z" fill="#F93647"/><path d="M26.17 13.724c.533.409.876 1.053.876 1.778 0 .713-.333 1.349-.851 1.758l-3.398 1.97-3.719-3.733 3.716-3.73 3.377 1.957z" fill="#FFCE00"/><path d="M5.21 1.578l15.986 9.263-3.378 3.39L5.21 1.579z" fill="#00F076"/></svg>