<svg width="24" height="24" viewBox="0 0 24 24" fill="none" xmlns="http://www.w3.org/2000/svg"><g id="ic/24/social/instagram"><path id="Combined Shape" fill-rule="evenodd" clip-rule="evenodd" d="M3 6.84a3.844 3.844 0 0 0 3.84 3.84 3.844 3.844 0 0 0 3.84-3.84A3.844 3.844 0 0 0 6.84 3 3.844 3.844 0 0 0 3 6.84zm13.435-1.006a.803.803 0 0 1 1.13 0 .803.803 0 0 1 0 1.132A.808.808 0 0 1 17 7.2a.806.806 0 0 1-.565-.234.807.807 0 0 1-.235-.566c0-.21.086-.417.235-.566z" fill="#fff"/><mask id="mask0" maskUnits="userSpaceOnUse" x="7" y="5" width="11" height="12"><path id="Combined Shape_2" fill-rule="evenodd" clip-rule="evenodd" d="M16.435 5.834a.803.803 0 0 1 1.13 0 .804.804 0 0 1 0 1.132A.808.808 0 0 1 17 7.2a.806.806 0 0 1-.565-.234.807.807 0 0 1-.235-.566c0-.21.086-.417.235-.566zM12 7.362A4.643 4.643 0 0 0 7.362 12 4.643 4.643 0 0 0 12 16.638 4.643 4.643 0 0 0 16.638 12 4.643 4.643 0 0 0 12 7.362zm0 8.478A3.844 3.844 0 0 1 8.16 12 3.844 3.844 0 0 1 12 8.16 3.844 3.844 0 0 1 15.84 12 3.844 3.844 0 0 1 12 15.84z" fill="#fff"/></mask></g></svg>