<svg width="203" height="16" viewBox="0 0 203 16" fill="none" xmlns="http://www.w3.org/2000/svg"><path d="M190.418 4L189 5.346 196 12l7-6.654L201.583 4 196 9.304 190.418 4z" fill="#fff"/><path fill-rule="evenodd" clip-rule="evenodd" d="M11.112 5.427c-.461-2.216-1.849-3.882-2.691-4.231v4.343a45.81 45.81 0 0 0 2.691-.112zm2.914-.464c-.154.047-.776.22-2.006.366-.278-1.476-.779-2.734-1.432-3.643a6.915 6.915 0 0 1 3.438 3.277zM8.42 6.517a46.485 46.485 0 0 0 2.806-.122c.065.518.081 1.054.081 1.606 0 .709-.025 1.396-.13 2.045a45.91 45.91 0 0 0-2.757-.117V6.517zm0 4.39v3.9c.842-.326 2.089-1.8 2.589-3.795a44.466 44.466 0 0 0-2.589-.105zm2.167 3.41c.588-.82 1.058-1.918 1.347-3.208.968.111 1.577.24 1.885.318a6.918 6.918 0 0 1-3.232 2.89zm1.58-8.02a14.801 14.801 0 0 1-.06 3.845c1.196.14 1.875.31 2.146.388a6.83 6.83 0 0 0 .488-2.529c0-.883-.172-1.758-.505-2.576l.158.447c-.044.015-.714.243-2.227.425z" fill="#fff"/></svg>